<svg width="64" height="64" viewBox="0 0 64 64" fill="none" xmlns="http://www.w3.org/2000/svg">
<path d="M56.78 25.45C56.3622 25.4427 55.9571 25.3047 55.6217 25.0554C55.2863 24.8061 55.0374 24.458 54.91 24.06C54.5994 23.1577 54.232 22.2759 53.81 21.42C53.6165 21.0457 53.5462 20.6199 53.6091 20.2033C53.6719 19.7867 53.8647 19.4006 54.16 19.1C54.9923 18.2609 55.4594 17.1269 55.4594 15.945C55.4594 14.7631 54.9923 13.6291 54.16 12.79L51.21 9.85C50.3705 9.01462 49.2343 8.54566 48.05 8.54566C46.8657 8.54566 45.7295 9.01462 44.89 9.85C44.5891 10.1415 44.2042 10.3311 43.7898 10.3921C43.3753 10.4531 42.9521 10.3824 42.58 10.19C41.7225 9.77146 40.841 9.40415 39.94 9.09C39.542 8.9626 39.1939 8.71372 38.9446 8.37832C38.6953 8.04292 38.5573 7.63785 38.55 7.22C38.55 6.03448 38.0791 4.89752 37.2408 4.05923C36.4025 3.22095 35.2655 2.75 34.08 2.75H29.92C28.7345 2.75 27.5975 3.22095 26.7592 4.05923C25.9209 4.89752 25.45 6.03448 25.45 7.22C25.4427 7.63785 25.3047 8.04292 25.0554 8.37832C24.8061 8.71372 24.458 8.9626 24.06 9.09C23.159 9.40415 22.2775 9.77146 21.42 10.19C21.0457 10.3835 20.6199 10.4538 20.2033 10.3909C19.7867 10.3281 19.4006 10.1353 19.1 9.84C18.2609 9.00766 17.1269 8.54062 15.945 8.54062C14.7631 8.54062 13.6291 9.00766 12.79 9.84L9.85 12.79C9.01462 13.6295 8.54566 14.7657 8.54566 15.95C8.54566 17.1343 9.01462 18.2705 9.85 19.11C10.1415 19.4109 10.3311 19.7958 10.3921 20.2102C10.4531 20.6247 10.3824 21.0479 10.19 21.42C9.77146 22.2775 9.40415 23.159 9.09 24.06C8.9626 24.458 8.71372 24.8061 8.37832 25.0554C8.04292 25.3047 7.63785 25.4427 7.22 25.45C6.03448 25.45 4.89752 25.9209 4.05923 26.7592C3.22095 27.5975 2.75 28.7345 2.75 29.92V34.08C2.75 35.2655 3.22095 36.4025 4.05923 37.2408C4.89752 38.0791 6.03448 38.55 7.22 38.55C7.63785 38.5573 8.04292 38.6953 8.37832 38.9446C8.71372 39.1939 8.9626 39.542 9.09 39.94C9.40415 40.841 9.77146 41.7225 10.19 42.58C10.3835 42.9543 10.4538 43.3801 10.3909 43.7967C10.3281 44.2133 10.1353 44.5995 9.84 44.9C9.00766 45.7391 8.54062 46.8731 8.54062 48.055C8.54062 49.2369 9.00766 50.3709 9.84 51.21L12.78 54.15C13.6182 54.9878 14.7549 55.4585 15.94 55.4585C17.1251 55.4585 18.2618 54.9878 19.1 54.15C19.4009 53.8585 19.7858 53.6689 20.2002 53.6079C20.6147 53.5469 21.0379 53.6176 21.41 53.81C22.2675 54.2285 23.149 54.5959 24.05 54.91C24.448 55.0374 24.7961 55.2863 25.0454 55.6217C25.2947 55.9571 25.4327 56.3622 25.44 56.78C25.44 57.9655 25.9109 59.1025 26.7492 59.9408C27.5875 60.7791 28.7245 61.25 29.91 61.25H34.07C35.2555 61.25 36.3925 60.7791 37.2308 59.9408C38.0691 59.1025 38.54 57.9655 38.54 56.78C38.5473 56.3622 38.6853 55.9571 38.9346 55.6217C39.1839 55.2863 39.532 55.0374 39.93 54.91C40.831 54.5959 41.7125 54.2285 42.57 53.81C42.9443 53.6165 43.3701 53.5462 43.7867 53.6091C44.2033 53.6719 44.5894 53.8647 44.89 54.16C45.7278 54.9948 46.8623 55.4635 48.045 55.4635C49.2277 55.4635 50.3622 54.9948 51.2 54.16L54.14 51.22C54.9754 50.3805 55.4443 49.2443 55.4443 48.06C55.4443 46.8757 54.9754 45.7395 54.14 44.9C53.8485 44.5991 53.6589 44.2142 53.5979 43.7998C53.5369 43.3853 53.6076 42.9621 53.8 42.59C54.222 41.7341 54.5894 40.8523 54.9 39.95C55.0274 39.552 55.2763 39.2039 55.6117 38.9546C55.9471 38.7053 56.3522 38.5673 56.77 38.56C57.9555 38.56 59.0925 38.0891 59.9308 37.2508C60.7691 36.4125 61.24 35.2755 61.24 34.09V29.92C61.24 28.7362 60.7704 27.6008 59.9343 26.7628C59.0982 25.9248 57.9638 25.4526 56.78 25.45V25.45ZM32 46.54C29.1243 46.54 26.3131 45.6872 23.922 44.0896C21.5309 42.4919 19.6673 40.2211 18.5668 37.5642C17.4663 34.9074 17.1784 31.9839 17.7394 29.1634C18.3004 26.3429 19.6852 23.7521 21.7187 21.7187C23.7521 19.6852 26.3429 18.3004 29.1634 17.7394C31.9839 17.1784 34.9074 17.4663 37.5642 18.5668C40.2211 19.6673 42.4919 21.5309 44.0896 23.922C45.6872 26.3131 46.54 29.1243 46.54 32C46.5374 35.8554 45.0046 39.5522 42.2784 42.2784C39.5522 45.0046 35.8554 46.5374 32 46.54V46.54Z" fill="#ffffff" id="id_102"></path>
</svg>